<mxfile host="Electron" modified="2024-01-18T00:33:00.010Z" agent="Mozilla/5.0 (Macintosh; Intel Mac OS X 10_15_7) AppleWebKit/537.36 (KHTML, like Gecko) draw.io/21.5.0 Chrome/112.0.5615.204 Electron/24.5.1 Safari/537.36" etag="tINHv3X5DLJ26jbiJFJi" version="21.5.0" type="device">
  <diagram name="Page-1" id="iWhu_VDo6VfAfU2KaOiC">
    <mxGraphModel dx="1114" dy="1125" grid="1" gridSize="10" guides="1" tooltips="1" connect="1" arrows="1" fold="1" page="1" pageScale="1" pageWidth="850" pageHeight="1100" math="0" shadow="0">
      <root>
        <mxCell id="0" />
        <mxCell id="1" parent="0" />
        <mxCell id="OwfIcselWy-r7RGBufba-1" value="" style="rounded=0;whiteSpace=wrap;html=1;fillColor=#FFFFFF;" vertex="1" parent="1">
          <mxGeometry width="790" height="630" as="geometry" />
        </mxCell>
        <mxCell id="OwfIcselWy-r7RGBufba-2" value="" style="rounded=0;whiteSpace=wrap;html=1;" vertex="1" parent="1">
          <mxGeometry width="150" height="620" as="geometry" />
        </mxCell>
        <mxCell id="OwfIcselWy-r7RGBufba-3" value="&lt;h1&gt;About MBPT&lt;/h1&gt;&lt;p&gt;brief text on this personality test&lt;/p&gt;&lt;p&gt;&lt;br&gt;&lt;/p&gt;&lt;p&gt;&lt;br&gt;&lt;/p&gt;" style="text;html=1;strokeColor=none;fillColor=none;spacing=5;spacingTop=-20;whiteSpace=wrap;overflow=hidden;rounded=0;" vertex="1" parent="1">
          <mxGeometry x="10" y="20" width="100" height="120" as="geometry" />
        </mxCell>
        <mxCell id="OwfIcselWy-r7RGBufba-4" value="&lt;h1&gt;&lt;font style=&quot;font-size: 18px;&quot;&gt;How is this application built&lt;/font&gt;&lt;/h1&gt;" style="text;html=1;strokeColor=none;fillColor=none;spacing=5;spacingTop=-20;whiteSpace=wrap;overflow=hidden;rounded=0;" vertex="1" parent="1">
          <mxGeometry x="10" y="150" width="100" height="120" as="geometry" />
        </mxCell>
        <mxCell id="OwfIcselWy-r7RGBufba-5" value="&lt;h1&gt;&lt;font color=&quot;#000000&quot;&gt;Question&lt;/font&gt;&lt;/h1&gt;" style="text;html=1;strokeColor=none;fillColor=none;spacing=5;spacingTop=-20;whiteSpace=wrap;overflow=hidden;rounded=0;" vertex="1" parent="1">
          <mxGeometry x="170" y="10" width="120" height="50" as="geometry" />
        </mxCell>
        <mxCell id="OwfIcselWy-r7RGBufba-7" value="Yes" style="rounded=1;whiteSpace=wrap;html=1;fillColor=#1ba1e2;fontColor=#ffffff;strokeColor=#006EAF;" vertex="1" parent="1">
          <mxGeometry x="170" y="70" width="120" height="60" as="geometry" />
        </mxCell>
        <mxCell id="OwfIcselWy-r7RGBufba-8" value="No" style="rounded=1;whiteSpace=wrap;html=1;fillColor=#1ba1e2;fontColor=#ffffff;strokeColor=#006EAF;" vertex="1" parent="1">
          <mxGeometry x="300" y="70" width="120" height="60" as="geometry" />
        </mxCell>
        <mxCell id="OwfIcselWy-r7RGBufba-9" value="Back" style="rounded=1;whiteSpace=wrap;html=1;fillColor=#1ba1e2;fontColor=#ffffff;strokeColor=#006EAF;" vertex="1" parent="1">
          <mxGeometry x="170" y="240" width="260" height="60" as="geometry" />
        </mxCell>
        <mxCell id="OwfIcselWy-r7RGBufba-10" value="Next" style="rounded=1;whiteSpace=wrap;html=1;fillColor=#1ba1e2;fontColor=#ffffff;strokeColor=#006EAF;" vertex="1" parent="1">
          <mxGeometry x="170" y="170" width="260" height="60" as="geometry" />
        </mxCell>
        <mxCell id="OwfIcselWy-r7RGBufba-11" value="&lt;h1&gt;&lt;font color=&quot;#000000&quot;&gt;Your results:&amp;nbsp;&lt;/font&gt;&lt;/h1&gt;" style="text;html=1;strokeColor=none;fillColor=none;spacing=5;spacingTop=-20;whiteSpace=wrap;overflow=hidden;rounded=0;" vertex="1" parent="1">
          <mxGeometry x="170" y="320" width="330" height="50" as="geometry" />
        </mxCell>
      </root>
    </mxGraphModel>
  </diagram>
</mxfile>
